<?xml version="1.0" encoding="UTF-8"?>
<svg id="Layer_1" data-name="Layer 1" xmlns="http://www.w3.org/2000/svg" viewBox="0 0 6381 2439">
  <polygon points="179.93 2228.19 1149.36 726.05 1151.93 500.19 1438.76 500.19 2303.93 500.19 2376.93 787.69 1584.88 788.12 1425.1 912.77 863.93 1760.19 179.93 2228.19"/>
  <polygon points="1954.19 1064.38 1923.15 1122.86 1893.65 1122.86 1920.27 1064.38 1954.19 1064.38"/>
  <path d="M1974.88,1025.4l20.82-39.21h-501.77l-189,288h537.89l59.64-112.35h-26.55l-26.62,58.48h-50.13l88.74-194.92h86.98ZM1637.09,1064.38h-25.06l-53.24,116.95h25.06l-17.75,38.99h-100.24l17.74-38.99h25.07l53.24-116.95h-25.07l17.75-38.98h100.24l-17.74,38.98Z"/>
  <path d="M2034.74,1081.09l-11.41,25.06c-7.02,15.41-15.02,27.38-24.01,35.92-9,8.54-19.68,14.2-32.1,16.99l6.92,61.26h-54.29l-5.41-58.48h-11.98l20.69-38.98h25.55c11.14,0,19.25-5.57,24.32-16.71l11.41-25.06c5.07-11.14,2.03-16.71-9.11-16.71h-21.13l20.69-38.98h29.64c19.42.02,31.52,4.43,36.33,13.22,4.79,8.82,2.76,22.98-6.11,42.47Z"/>
  <polygon points="3905.05 1004.19 3702.55 1292.19 3077.55 1292.19 3267.05 1004.19 3905.05 1004.19"/>
  <polygon points="3932.05 1400.19 3671.05 1796.19 2312.05 1796.19 2885.24 1562.19 2924.05 1508.19 3653.05 1508.19 3932.05 1400.19"/>
  <polygon points="2411.05 500.19 2483.05 788.19 2780.05 788.19 2879.05 788.19 2204.05 1778.19 2843.05 1500.19 3320.05 788.19 4022.05 788.19 4103.05 986.19 4436.05 500.19 2411.05 500.19"/>
  <path d="M5775.03,682.72l-8.25,1.2c-32.78,4.72-58.28,30.9-62.16,63.79l-1.75,14.89-1.75-14.89c-3.87-32.89-29.38-59.07-62.16-63.79l-8.25-1.2,8.25-1.19c32.78-4.72,58.29-30.9,62.16-63.79l1.75-14.89,1.75,14.89c3.88,32.89,29.38,59.07,62.16,63.79l8.25,1.19Z"/>
  <path d="M6168.84,500.13l-19.46,3.06c-108.35,17.02-191.81,104.61-203.6,213.65l-6.49,60.08-6.5-60.08c-3.81-35.26-15.12-68.29-32.34-97.4-36.03-60.91-97.94-104.73-171.25-116.25l-19.09-3-.38-.06,19.47-3.06c108.35-17.03,191.81-104.61,203.59-213.66l6.5-60.07,6.49,60.07c11.79,109.05,95.25,196.63,203.6,213.66l19.46,3.06Z"/>
  <path d="M6128.91,210.81l1.75,14.89c3.87,32.89,29.38,59.07,62.15,63.8l8.25,1.19-8.25,1.19c-32.78,4.73-58.28,30.91-62.15,63.8l-1.75,14.89-1.75-14.89c-3.87-32.89-29.38-59.07-62.15-63.8l-8.25-1.19,8.25-1.19c32.78-4.73,58.28-30.91,62.15-63.8l1.75-14.89Z"/>
  <path d="M5675.92,503.55l-15.13-3.36h-1098.21l-182.18,288-150.63,225,771.13,288-165.44,207h-667.5l-109.91-108-243.27,396h1332.01l136.63-216,234.33-342-717.82-288-7.19.66,109.66-162.66h711l112.69,108,154.47-245.19c-44.09-73.4-117.01-127.98-204.64-147.45ZM5732.69,716.05c-14.8,16.65-24.34,37.98-26.28,61.34l-3.54,42.51-3.54-42.51c-3.89-46.73-38.14-85.29-84.09-94.67,22.97-4.69,43.03-16.67,57.82-33.32s24.33-37.97,26.27-61.34l3.54-42.51,3.54,42.51c3.89,46.73,38.15,85.29,84.09,94.66-22.97,4.69-43.02,16.67-57.81,33.33Z"/>
  <path d="M2289.26,1086.66c-5.07,11.14-2.04,16.71,9.1,16.71h50.12c18.19,0,29.62,4.27,34.27,12.8,4.65,8.55,2.84,21.91-5.44,40.1l-6.34,13.92c-8.28,18.2-18.64,31.57-31.06,40.1-12.43,8.54-27.74,12.81-45.93,12.81-9.47,0-19.41-.19-29.82-.56l-25.11-1.11c-18.51-.93-37.51-2.23-56.98-3.9l17.11-37.59c49.59,2.79,83.4,4.18,101.41,4.18,4.26,0,8.22-1.26,11.87-3.76,3.65-2.51,6.44-5.89,8.39-10.17l11.4-25.06h-64.04c-19.49,0-31.64-4.4-36.44-13.22-3.21-5.88-3.37-14.13-.48-24.75,1.43-5.31,3.62-11.22,6.58-17.72l3.8-8.35c8.88-19.49,19.73-33.65,32.56-42.47,12.83-8.81,28.99-13.22,48.49-13.22h97.73l-17.74,38.98h-86.6c-.51,0-1,.01-1.49.04-.2.02-.38.03-.56.03-11.22.07-17.75,9.16-17.75,9.16-1.71,2.12-3.21,4.62-4.51,7.48l-2.54,5.57Z"/>
</svg>